<svg width="27" height="20" viewBox="0 0 27 20" fill="none" xmlns="http://www.w3.org/2000/svg">
<path d="M0 20V16.5C0 15.7917 0.178977 15.1406 0.536932 14.5469C0.894886 13.9531 1.37045 13.5 1.96364 13.1875C3.23182 12.5417 4.52045 12.0573 5.82955 11.7344C7.13864 11.4115 8.46818 11.25 9.81818 11.25C11.1682 11.25 12.4977 11.4115 13.8068 11.7344C15.1159 12.0573 16.4045 12.5417 17.6727 13.1875C18.2659 13.5 18.7415 13.9531 19.0994 14.5469C19.4574 15.1406 19.6364 15.7917 19.6364 16.5V20H0ZM22.0909 20V16.25C22.0909 15.3333 21.8403 14.4531 21.3392 13.6094C20.8381 12.7656 20.1273 12.0417 19.2068 11.4375C20.25 11.5625 21.2318 11.776 22.1523 12.0781C23.0727 12.3802 23.9318 12.75 24.7295 13.1875C25.4659 13.6042 26.0284 14.0677 26.417 14.5781C26.8057 15.0885 27 15.6458 27 16.25V20H22.0909ZM9.81818 10C8.46818 10 7.3125 9.51042 6.35114 8.53125C5.38977 7.55208 4.90909 6.375 4.90909 5C4.90909 3.625 5.38977 2.44792 6.35114 1.46875C7.3125 0.489583 8.46818 0 9.81818 0C11.1682 0 12.3239 0.489583 13.2852 1.46875C14.2466 2.44792 14.7273 3.625 14.7273 5C14.7273 6.375 14.2466 7.55208 13.2852 8.53125C12.3239 9.51042 11.1682 10 9.81818 10ZM22.0909 5C22.0909 6.375 21.6102 7.55208 20.6489 8.53125C19.6875 9.51042 18.5318 10 17.1818 10C16.9568 10 16.6705 9.97396 16.3227 9.92188C15.975 9.86979 15.6886 9.8125 15.4636 9.75C16.0159 9.08333 16.4403 8.34375 16.7369 7.53125C17.0335 6.71875 17.1818 5.875 17.1818 5C17.1818 4.125 17.0335 3.28125 16.7369 2.46875C16.4403 1.65625 16.0159 0.916667 15.4636 0.25C15.75 0.145833 16.0364 0.078125 16.3227 0.046875C16.6091 0.015625 16.8955 0 17.1818 0C18.5318 0 19.6875 0.489583 20.6489 1.46875C21.6102 2.44792 22.0909 3.625 22.0909 5ZM2.45455 17.5H17.1818V16.5C17.1818 16.2708 17.1256 16.0625 17.0131 15.875C16.9006 15.6875 16.7523 15.5417 16.5682 15.4375C15.4636 14.875 14.3489 14.4531 13.2239 14.1719C12.0989 13.8906 10.9636 13.75 9.81818 13.75C8.67273 13.75 7.5375 13.8906 6.4125 14.1719C5.2875 14.4531 4.17273 14.875 3.06818 15.4375C2.88409 15.5417 2.7358 15.6875 2.6233 15.875C2.5108 16.0625 2.45455 16.2708 2.45455 16.5V17.5ZM9.81818 7.5C10.4932 7.5 11.071 7.25521 11.5517 6.76562C12.0324 6.27604 12.2727 5.6875 12.2727 5C12.2727 4.3125 12.0324 3.72396 11.5517 3.23438C11.071 2.74479 10.4932 2.5 9.81818 2.5C9.14318 2.5 8.56534 2.74479 8.08466 3.23438C7.60398 3.72396 7.36364 4.3125 7.36364 5C7.36364 5.6875 7.60398 6.27604 8.08466 6.76562C8.56534 7.25521 9.14318 7.5 9.81818 7.5Z" fill="#EC3D3D"/>
</svg>
