<svg width="140" height="51" viewBox="0 0 140 51" fill="none" xmlns="http://www.w3.org/2000/svg">
<path fill-rule="evenodd" clip-rule="evenodd" d="M72.7602 7.69799C52.666 -1.59071 37.7391 23.8954 44.8717 33.335C46.1447 35.0197 55.0382 39.0412 57.9318 38.8171C47.381 22.0997 62.1868 6.33797 72.7602 7.69807V7.69799Z" fill="#111827"/>
<path fill-rule="evenodd" clip-rule="evenodd" d="M77.351 30.8422L94.965 30.752C76.1534 64.4941 46.4414 47.117 43.1396 34.5825C43.0936 34.4083 64.6068 50.9164 77.351 30.8423V30.8422Z" fill="#111827"/>
<path fill-rule="evenodd" clip-rule="evenodd" d="M59.5274 4.21803C64.305 0.256549 86.7246 -5.87629 94.2711 12.8529C94.3918 13.1522 90.8548 12.9118 79.9548 13.1615C79.9548 13.1615 76.8528 1.52251 59.5274 4.21811V4.21803Z" fill="#111827"/>
<path d="M67.9002 23.3309L66.8854 28.1198H64.0904L65.9597 19.3252H68.7547L68.3275 21.3191H72.8672L72.44 23.3309H67.9003H67.9002ZM66.1377 18.4351L66.6362 16.0674H75.5554L75.0569 18.4351H66.1377Z" fill="#111827"/>
<path d="M75.6078 28.1196C75.1568 28.1196 74.8304 28.0335 74.6287 27.8615C74.4269 27.6894 74.3261 27.4313 74.3261 27.0871C74.3261 26.9209 74.3557 26.7014 74.4151 26.4283L74.8601 24.292C74.9313 23.9597 75.0144 23.6808 75.1093 23.4553C75.2043 23.2298 75.3229 23.0518 75.4654 22.9212C75.6078 22.7906 75.78 22.6987 75.9817 22.6452C76.1835 22.5918 76.4267 22.5651 76.7116 22.5651H81.2869L80.9664 24.0961H77.6907C77.5246 24.0961 77.4059 24.1257 77.3347 24.1851C77.2634 24.2444 77.2101 24.3691 77.1744 24.559L76.9786 25.5025C76.9667 25.5618 76.9578 25.6093 76.9519 25.6449C76.9459 25.6805 76.943 25.7162 76.943 25.7517C76.943 25.906 77.0557 25.9831 77.2812 25.9831H81.447L82.3906 21.5681C82.4025 21.5206 82.4083 21.4554 82.4083 21.3723C82.4083 21.2773 82.3787 21.2031 82.3193 21.1498C82.26 21.0963 82.1472 21.0696 81.981 21.0696H75.8747L76.2842 19.1114H83.6545C84.1767 19.1114 84.5447 19.1974 84.7583 19.3695C84.9719 19.5415 85.0787 19.8116 85.0787 20.1795C85.0787 20.3456 85.049 20.5771 84.9897 20.8738L83.4587 28.1195H75.6077L75.6078 28.1196Z" fill="#111827"/>
<path d="M85.2923 28.1195L85.7195 26.0544H91.8971C92.087 26.0544 92.2146 26.0248 92.2799 25.9654C92.3451 25.9061 92.3956 25.7933 92.4312 25.6272L92.6271 24.737C92.639 24.7015 92.6448 24.654 92.6448 24.5947C92.6448 24.4404 92.5262 24.3632 92.2888 24.3632H87.4642C87.0607 24.3632 86.7669 24.2831 86.5829 24.1229C86.399 23.9627 86.307 23.7461 86.307 23.4731C86.307 23.3544 86.3248 23.2239 86.3604 23.0814L86.8589 20.678C86.9657 20.144 87.1675 19.7494 87.4642 19.4941C87.761 19.239 88.2238 19.1114 88.8528 19.1114H96.2943L95.8671 21.1231H89.7251C89.5352 21.1231 89.3987 21.1586 89.3156 21.2299C89.2326 21.3011 89.1732 21.4257 89.1376 21.6038L88.9774 22.3515C88.9655 22.387 88.9596 22.4405 88.9596 22.5117C88.9596 22.7016 89.0842 22.7966 89.3334 22.7966H94.2113C94.6267 22.7966 94.9264 22.8796 95.1103 23.0458C95.2943 23.2119 95.3863 23.4315 95.3863 23.7045C95.3863 23.7638 95.3833 23.8232 95.3774 23.8826C95.3715 23.9419 95.3626 24.0013 95.3507 24.0606L94.8166 26.5529C94.6979 27.0871 94.4902 27.4816 94.1935 27.7368C93.8967 27.992 93.4339 28.1196 92.8049 28.1196H85.2921L85.2923 28.1195Z" fill="#111827"/>
<path d="M98.0223 28.1196C97.5238 28.1196 97.1648 28.0336 96.9452 27.8615C96.7256 27.6895 96.6159 27.4194 96.6159 27.0515C96.6159 26.8854 96.6456 26.6539 96.7049 26.3572L98.77 16.6013H101.262L100.728 19.1115H102.9L102.491 21.0698H100.319L99.3397 25.6807C99.316 25.7994 99.3041 25.8765 99.3041 25.9122C99.3041 26.0783 99.4347 26.1614 99.6958 26.1614H101.334L100.924 28.1196H98.0223Z" fill="#111827"/>
<path d="M106.299 23.3309L105.284 28.1198H102.489L104.358 19.3252H107.153L106.726 21.3191H111.266L110.839 23.3309H106.299H106.299ZM104.536 18.4351L105.035 16.0674H113.954L113.456 18.4351H104.536Z" fill="#111827"/>
<path d="M113.064 28.1196L114.969 19.1114H117.462L115.557 28.1196H113.064ZM115.201 18.0432L115.77 15.3372H118.281L117.711 18.0432H115.201Z" fill="#111827"/>
<path d="M124.263 28.1195L122.697 24.6658L119.617 28.1195H116.733L121.041 23.3128L118.923 19.1114H121.878L123.427 22.3337L126.293 19.1114H129.106L125.1 23.473L127.308 28.1195H124.263Z" fill="#111827"/>
<path d="M135.158 28.1195L133.591 24.6658L130.511 28.1195H127.627L131.935 23.3128L129.817 19.1114H132.772L134.321 22.3337L137.187 19.1114H140L135.994 23.473L138.202 28.1195H135.158Z" fill="#111827"/>
<path fill-rule="evenodd" clip-rule="evenodd" d="M31.3083 28.0696H39.6935C39.6454 29.3416 39.722 30.6655 39.9409 32.0406H31.3083C30.2163 32.0406 29.3228 31.1471 29.3228 30.0551C29.3228 28.9631 30.2163 28.0696 31.3083 28.0696Z" fill="#111827"/>
<path fill-rule="evenodd" clip-rule="evenodd" d="M31.0143 15.3206H44.8029C43.8165 16.5355 42.9089 17.8599 42.1383 19.2916H31.0144C29.9223 19.2916 29.0289 18.3982 29.0289 17.3061C29.0289 16.214 29.9223 15.3206 31.0144 15.3206H31.0143Z" fill="#111827"/>
<path fill-rule="evenodd" clip-rule="evenodd" d="M9.07096 15.1114H23.9099C25.002 15.1114 25.8954 16.0048 25.8954 17.0969C25.8954 18.1889 25.002 19.0823 23.9099 19.0823H9.07096C7.97886 19.0823 7.08546 18.1889 7.08546 17.0969C7.08546 16.0048 7.97886 15.1114 9.07096 15.1114Z" fill="#111827"/>
<path fill-rule="evenodd" clip-rule="evenodd" d="M41.7597 38.1016H41.6738C40.5817 38.1016 39.6883 37.2082 39.6883 36.1161C39.6883 35.4712 40 34.8956 40.4801 34.5323C40.8002 35.6887 41.225 36.8791 41.7597 38.1016L41.7597 38.1016Z" fill="#111827"/>
<path fill-rule="evenodd" clip-rule="evenodd" d="M31.788 34.1304H36.5629C37.655 34.1304 38.5484 35.0239 38.5484 36.1159C38.5484 37.208 37.655 38.1014 36.5629 38.1014H31.788C30.6959 38.1014 29.8025 37.208 29.8025 36.1159C29.8025 35.0239 30.6959 34.1304 31.788 34.1304Z" fill="#111827"/>
<path fill-rule="evenodd" clip-rule="evenodd" d="M16.1667 22.3011H38.2364C39.318 22.3011 40.2045 23.1775 40.2215 24.2551C40.1513 24.5451 40.0876 24.8385 40.0302 25.135C39.7106 25.8057 39.0254 26.2721 38.2364 26.2721H16.1667C15.0747 26.2721 14.1812 25.3786 14.1812 24.2866C14.1812 23.1945 15.0747 22.3011 16.1667 22.3011Z" fill="#111827"/>
<path fill-rule="evenodd" clip-rule="evenodd" d="M1.9855 27.8292H24.0552C25.1473 27.8292 26.0407 28.7225 26.0407 29.8146C26.0407 30.9067 25.1472 31.8001 24.0552 31.8001H1.9855C0.8934 31.8001 0 30.9067 0 29.8146C0 28.7225 0.8934 27.8292 1.9855 27.8292Z" fill="#111827"/>
<path fill-rule="evenodd" clip-rule="evenodd" d="M26.0206 40.5675H42.9729C43.6744 41.8569 44.5049 43.1815 45.4656 44.5384H26.0207C24.9286 44.5384 24.0352 43.645 24.0352 42.553C24.0352 41.4609 24.9286 40.5675 26.0207 40.5675H26.0206Z" fill="#111827"/>
<path fill-rule="evenodd" clip-rule="evenodd" d="M15.8864 34.3187H26.2181C27.3101 34.3187 28.2036 35.2121 28.2036 36.3042C28.2036 37.3962 27.3101 38.2897 26.2181 38.2897H15.8864C14.7944 38.2897 13.9009 37.3962 13.9009 36.3042C13.9009 35.2121 14.7944 34.3187 15.8864 34.3187Z" fill="#111827"/>
<path fill-rule="evenodd" clip-rule="evenodd" d="M33.9401 8.37534H48.779C49.6463 8.37534 50.3883 8.93895 50.657 9.71788C49.6427 10.4924 48.5951 11.369 47.5665 12.3463H33.9401C32.8481 12.3463 31.9546 11.4529 31.9546 10.3608C31.9546 9.26874 32.8481 8.37526 33.9401 8.37526V8.37534Z" fill="#111827"/>
</svg>
