<svg width="32" height="30" viewBox="0 0 32 30" fill="none" xmlns="http://www.w3.org/2000/svg">
<path d="M26.8571 0H5.14286C3.77935 0.00151249 2.47212 0.543834 1.50798 1.50798C0.543833 2.47212 0.00151249 3.77935 0 5.14286V18.8571C0.00151249 20.2206 0.543833 21.5279 1.50798 22.492C2.47212 23.4562 3.77935 23.9985 5.14286 24H6.85714V28.5714C6.85708 28.7887 6.91898 29.0015 7.03557 29.1849C7.15216 29.3683 7.31861 29.5146 7.51541 29.6068C7.71221 29.6989 7.9312 29.733 8.1467 29.7051C8.3622 29.6772 8.56529 29.5885 8.73214 29.4493L15.2671 24H26.8571C28.2206 23.9985 29.5279 23.4562 30.492 22.492C31.4562 21.5279 31.9985 20.2206 32 18.8571V5.14286C31.9985 3.77935 31.4562 2.47212 30.492 1.50798C29.5279 0.543834 28.2206 0.00151249 26.8571 0ZM9.14286 14.2857C8.69079 14.2857 8.24887 14.1517 7.87298 13.9005C7.4971 13.6493 7.20413 13.2924 7.03113 12.8747C6.85813 12.457 6.81287 11.9975 6.90106 11.5541C6.98926 11.1107 7.20695 10.7034 7.52661 10.3838C7.84628 10.0641 8.25355 9.8464 8.69694 9.7582C9.14032 9.67001 9.5999 9.71527 10.0176 9.88827C10.4352 10.0613 10.7922 10.3542 11.0434 10.7301C11.2945 11.106 11.4286 11.5479 11.4286 12C11.4286 12.6062 11.1878 13.1876 10.7591 13.6162C10.3304 14.0449 9.74907 14.2857 9.14286 14.2857ZM16 14.2857C15.5479 14.2857 15.106 14.1517 14.7301 13.9005C14.3542 13.6493 14.0613 13.2924 13.8883 12.8747C13.7153 12.457 13.67 11.9975 13.7582 11.5541C13.8464 11.1107 14.0641 10.7034 14.3838 10.3838C14.7034 10.0641 15.1107 9.8464 15.5541 9.7582C15.9975 9.67001 16.457 9.71527 16.8747 9.88827C17.2924 10.0613 17.6493 10.3542 17.9005 10.7301C18.1517 11.106 18.2857 11.5479 18.2857 12C18.2857 12.6062 18.0449 13.1876 17.6162 13.6162C17.1876 14.0449 16.6062 14.2857 16 14.2857ZM22.8571 14.2857C22.4051 14.2857 21.9632 14.1517 21.5873 13.9005C21.2114 13.6493 20.9184 13.2924 20.7454 12.8747C20.5724 12.457 20.5272 11.9975 20.6153 11.5541C20.7035 11.1107 20.9212 10.7034 21.2409 10.3838C21.5606 10.0641 21.9678 9.8464 22.4112 9.7582C22.8546 9.67001 23.3142 9.71527 23.7318 9.88827C24.1495 10.0613 24.5065 10.3542 24.7576 10.7301C25.0088 11.106 25.1429 11.5479 25.1429 12C25.1429 12.6062 24.902 13.1876 24.4734 13.6162C24.0447 14.0449 23.4634 14.2857 22.8571 14.2857Z" fill="#F9FAFB"/>
</svg>
