<svg width="44" height="44" viewBox="0 0 44 44" fill="none" xmlns="http://www.w3.org/2000/svg">
<g filter="url(#filter0_d_0_13)">
<rect width="44" height="44" rx="10" fill="#F9FAFB"/>
<path d="M24.1683 23.7335L25.5682 21.3087C25.6582 21.1584 25.6182 20.968 25.4882 20.8578L24.0083 19.6955C24.0383 19.475 24.0583 19.2446 24.0583 19.0141C24.0583 18.7837 24.0383 18.5532 24.0083 18.3228L25.4882 17.1605C25.6182 17.0502 25.6582 16.8599 25.5682 16.7096L24.1683 14.2848C24.0783 14.1345 23.8983 14.0743 23.7383 14.1345L21.9983 14.8359C21.6383 14.5553 21.2483 14.3248 20.8183 14.1445L20.5584 12.2908C20.5284 12.1305 20.3784 12.0002 20.2084 12.0002H17.4084C17.2384 12.0002 17.0884 12.1305 17.0584 12.3008L16.7984 14.1545C16.3784 14.3349 15.9785 14.5653 15.6185 14.8459L13.8785 14.1445C13.7185 14.0844 13.5385 14.1445 13.4485 14.2948L12.0485 16.7196C11.9585 16.8699 11.9985 17.0603 12.1285 17.1705L13.6085 18.3328C13.5785 18.5532 13.5585 18.7837 13.5585 19.0141C13.5585 19.2446 13.5785 19.475 13.6085 19.7055L12.1285 20.8678C11.9985 20.978 11.9585 21.1684 12.0485 21.3187L13.4485 23.7435C13.5385 23.8938 13.7185 23.9539 13.8785 23.8938L15.6185 23.1924C15.9785 23.4729 16.3684 23.7034 16.7984 23.8837L17.0584 25.7374C17.0884 25.8977 17.2384 26.028 17.4084 26.028H20.2084C20.3784 26.028 20.5284 25.8977 20.5584 25.7274L20.8183 23.8737C21.2383 23.6934 21.6383 23.4629 21.9983 23.1824L23.7383 23.8837C23.8983 23.9439 24.0783 23.8837 24.1683 23.7335ZM18.8084 21.0181C17.7084 21.0181 16.8084 20.1163 16.8084 19.0141C16.8084 17.9119 17.7084 17.0102 18.8084 17.0102C19.9084 17.0102 20.8083 17.9119 20.8083 19.0141C20.8083 20.1163 19.9084 21.0181 18.8084 21.0181Z" fill="#EC3D3D"/>
<path d="M31.9181 28.7035L30.9581 27.962C30.9781 27.8217 30.9981 27.6714 30.9981 27.5211C30.9981 27.3708 30.9881 27.2205 30.9581 27.0802L31.9081 26.3388C31.9881 26.2686 32.0181 26.1484 31.9581 26.0482L31.0581 24.4951C31.0081 24.3949 30.8881 24.3649 30.7781 24.3949L29.6681 24.8458C29.4381 24.6655 29.1881 24.5152 28.9082 24.405L28.7382 23.2226C28.7282 23.1024 28.6282 23.0222 28.5282 23.0222H26.7382C26.6282 23.0222 26.5282 23.1024 26.5182 23.2126L26.3482 24.3949C26.0782 24.5152 25.8182 24.6554 25.5882 24.8358L24.4782 24.3849C24.3783 24.3448 24.2583 24.3849 24.1983 24.4851L23.2983 26.0382C23.2483 26.1384 23.2583 26.2586 23.3483 26.3288L24.2983 27.0702C24.2783 27.2105 24.2683 27.3608 24.2683 27.5111C24.2683 27.6614 24.2783 27.8117 24.2983 27.952L23.3483 28.6934C23.2683 28.7636 23.2383 28.8838 23.2983 28.984L24.1983 30.5371C24.2483 30.6373 24.3683 30.6673 24.4782 30.6373L25.5882 30.1864C25.8182 30.3667 26.0682 30.517 26.3482 30.6273L26.5182 31.8096C26.5382 31.9198 26.6282 32 26.7382 32H28.5282C28.6382 32 28.7382 31.9198 28.7482 31.8096L28.9182 30.6273C29.1881 30.507 29.4481 30.3667 29.6681 30.1864L30.7881 30.6373C30.8881 30.6774 31.0081 30.6373 31.0681 30.5371L31.9681 28.984C32.0281 28.8938 31.9981 28.7736 31.9181 28.7035ZM27.6282 28.8638C26.8882 28.8638 26.2782 28.2626 26.2782 27.5111C26.2782 26.7596 26.8782 26.1584 27.6282 26.1584C28.3782 26.1584 28.9782 26.7596 28.9782 27.5111C28.9782 28.2626 28.3682 28.8638 27.6282 28.8638Z" fill="#EC3D3D"/>
</g>
<defs>
<filter id="filter0_d_0_13" x="-10" y="-5" width="64" height="64" filterUnits="userSpaceOnUse" color-interpolation-filters="sRGB">
<feFlood flood-opacity="0" result="BackgroundImageFix"/>
<feColorMatrix in="SourceAlpha" type="matrix" values="0 0 0 0 0 0 0 0 0 0 0 0 0 0 0 0 0 0 127 0" result="hardAlpha"/>
<feOffset dy="5"/>
<feGaussianBlur stdDeviation="5"/>
<feColorMatrix type="matrix" values="0 0 0 0 0 0 0 0 0 0 0 0 0 0 0 0 0 0 0.15 0"/>
<feBlend mode="normal" in2="BackgroundImageFix" result="effect1_dropShadow_0_13"/>
<feBlend mode="normal" in="SourceGraphic" in2="effect1_dropShadow_0_13" result="shape"/>
</filter>
</defs>
</svg>
